<?xml version="1.0" encoding="UTF-8"?><svg xmlns="http://www.w3.org/2000/svg" viewBox="0 0 454.36 196.48"><defs><style>.d{fill:#fff;}.e{fill:#ebabef;}.f{fill:#2edab2;}.g{fill:#3971e2;}.h{fill:#8accf6;}.i{fill:#f2791d;}.j{fill:#e0393a;}.k{fill:#f7bd2d;}.l{fill:#8cd262;}</style></defs><g id="a"/><g id="b"><g id="c"><g><path class="j" d="M100.89,1.14l16.48,20.78c.66,.84,.83,1.96,.44,2.96l-16.48,42.05c-1,2.54-4.59,2.54-5.59,0l-16.48-42.05c-.39-.99-.22-2.12,.44-2.96L96.19,1.14c1.2-1.51,3.5-1.51,4.7,0Z"/><path class="f" d="M96.19,195.34l-16.48-20.78c-.66-.84-.83-1.96-.44-2.96l16.48-42.05c1-2.54,4.59-2.54,5.59,0l16.48,42.05c.39,.99,.22,2.12-.44,2.96l-16.48,20.78c-1.2,1.51-3.5,1.51-4.7,0Z"/><path class="h" d="M.95,96.28l21.28-16.88c.84-.66,1.96-.83,2.96-.44l42.05,16.48c2.54,1,2.54,4.59,0,5.59l-42.05,16.48c-.99,.39-2.12,.22-2.96-.44L.95,100.2c-1.26-1-1.26-2.91,0-3.91Z"/><path class="k" d="M195.65,100.59l-20.78,16.48c-.84,.66-1.96,.83-2.96,.44l-42.05-16.48c-2.54-1-2.54-4.59,0-5.59l42.05-16.48c.99-.39,2.12-.22,2.96,.44l20.78,16.48c1.51,1.2,1.51,3.5,0,4.7Z"/><path class="e" d="M31.54,27.91l26.35,3.04c1.06,.12,1.98,.8,2.41,1.78l18.08,41.39c1.09,2.5-1.45,5.04-3.95,3.95l-41.39-18.08c-.98-.43-1.66-1.34-1.78-2.41l-3.04-26.35c-.22-1.92,1.4-3.55,3.32-3.32Z"/><path class="l" d="M165.54,168.56l-26.35-3.04c-1.06-.12-1.98-.8-2.41-1.78l-18.08-41.39c-1.09-2.5,1.45-5.04,3.95-3.95l41.39,18.08c.98,.43,1.66,1.34,1.78,2.41l3.04,26.35c.22,1.92-1.4,3.55-3.32,3.32Z"/><path class="g" d="M28.22,165.24l3.04-26.35c.12-1.06,.8-1.98,1.78-2.41l41.39-18.08c2.5-1.09,5.04,1.45,3.95,3.95l-18.08,41.39c-.43,.98-1.34,1.66-2.41,1.78l-26.35,3.04c-1.92,.22-3.55-1.4-3.32-3.32Z"/><path class="i" d="M168.87,31.24l-3.04,26.35c-.12,1.06-.8,1.98-1.78,2.41l-41.39,18.08c-2.5,1.09-5.04-1.45-3.95-3.95l18.08-41.39c.43-.98,1.34-1.66,2.41-1.78l26.35-3.04c1.92-.22,3.55,1.4,3.32,3.32Z"/></g><path class="d" d="M245.28,60.11h15.09v81.25h-15.09V60.11Z"/><path class="d" d="M332.32,141.36l-16.6-23.79c-1.04,.12-2.09,.12-3.13,.12h-18.34v23.68h-15.09V60.11h33.43c21.36,0,34.59,10.91,34.59,28.9,0,12.3-6.27,21.36-17.29,25.65l18.69,26.7h-16.25Zm-20.43-68.48h-17.64v32.38h17.64c13.23,0,20.08-6.04,20.08-16.25s-6.85-16.13-20.08-16.13Z"/><path class="d" d="M361.52,60.11h15.09v81.25h-15.09V60.11Z"/><path class="d" d="M389.48,132.77l5.22-11.72c6.5,5.22,16.83,8.94,26.81,8.94,12.65,0,17.99-4.53,17.99-10.56,0-17.53-48.29-6.04-48.29-36.21,0-13.12,10.45-24.26,32.73-24.26,9.75,0,19.96,2.55,27.04,7.2l-4.76,11.72c-7.31-4.29-15.32-6.38-22.4-6.38-12.54,0-17.64,4.88-17.64,11.03,0,17.29,48.17,6.04,48.17,35.87,0,13-10.56,24.14-32.85,24.14-12.65,0-25.3-3.95-32.04-9.75Z"/></g></g></svg>