<?xml version="1.0" encoding="UTF-8"?><svg xmlns="http://www.w3.org/2000/svg" viewBox="0 0 196.78 196.48"><defs><style>.d{fill:#ebabef;}.e{fill:#2edab2;}.f{fill:#3971e2;}.g{fill:#8accf6;}.h{fill:#f2791d;}.i{fill:#e0393a;}.j{fill:#f7bd2d;}.k{fill:#8cd262;}</style></defs><g id="a"/><g id="b"><g id="c"><g><path class="i" d="M100.89,1.14l16.48,20.78c.66,.84,.83,1.96,.44,2.96l-16.48,42.05c-1,2.54-4.59,2.54-5.59,0l-16.48-42.05c-.39-.99-.22-2.12,.44-2.96L96.19,1.14c1.2-1.51,3.5-1.51,4.7,0Z"/><path class="e" d="M96.19,195.34l-16.48-20.78c-.66-.84-.83-1.96-.44-2.96l16.48-42.05c1-2.54,4.59-2.54,5.59,0l16.48,42.05c.39,.99,.22,2.12-.44,2.96l-16.48,20.78c-1.2,1.51-3.5,1.51-4.7,0Z"/><path class="g" d="M.95,96.28l21.28-16.88c.84-.66,1.96-.83,2.96-.44l42.05,16.48c2.54,1,2.54,4.59,0,5.59l-42.05,16.48c-.99,.39-2.12,.22-2.96-.44L.95,100.2c-1.26-1-1.26-2.91,0-3.91Z"/><path class="j" d="M195.65,100.59l-20.78,16.48c-.84,.66-1.96,.83-2.96,.44l-42.05-16.48c-2.54-1-2.54-4.59,0-5.59l42.05-16.48c.99-.39,2.12-.22,2.96,.44l20.78,16.48c1.51,1.2,1.51,3.5,0,4.7Z"/><path class="d" d="M31.54,27.91l26.35,3.04c1.06,.12,1.98,.8,2.41,1.78l18.08,41.39c1.09,2.5-1.45,5.04-3.95,3.95l-41.39-18.08c-.98-.43-1.66-1.34-1.78-2.41l-3.04-26.35c-.22-1.92,1.4-3.55,3.32-3.32Z"/><path class="k" d="M165.54,168.56l-26.35-3.04c-1.06-.12-1.98-.8-2.41-1.78l-18.08-41.39c-1.09-2.5,1.45-5.04,3.95-3.95l41.39,18.08c.98,.43,1.66,1.34,1.78,2.41l3.04,26.35c.22,1.92-1.4,3.55-3.32,3.32Z"/><path class="f" d="M28.22,165.24l3.04-26.35c.12-1.06,.8-1.98,1.78-2.41l41.39-18.08c2.5-1.09,5.04,1.45,3.95,3.95l-18.08,41.39c-.43,.98-1.34,1.66-2.41,1.78l-26.35,3.04c-1.92,.22-3.55-1.4-3.32-3.32Z"/><path class="h" d="M168.87,31.24l-3.04,26.35c-.12,1.06-.8,1.98-1.78,2.41l-41.39,18.08c-2.5,1.09-5.04-1.45-3.95-3.95l18.08-41.39c.43-.98,1.34-1.66,2.41-1.78l26.35-3.04c1.92-.22,3.55,1.4,3.32,3.32Z"/></g></g></g></svg>