<?xml version="1.0" encoding="UTF-8"?><svg xmlns="http://www.w3.org/2000/svg" viewBox="0 0 954.72 196.48"><defs><style>.d{fill:#fff;}</style></defs><g id="a"/><g id="b"><g id="c"><g><path class="d" d="M100.89,1.14l16.48,20.78c.66,.84,.83,1.96,.44,2.96l-16.48,42.05c-1,2.54-4.59,2.54-5.59,0l-16.48-42.05c-.39-.99-.22-2.12,.44-2.96L96.19,1.14c1.2-1.51,3.5-1.51,4.7,0Z"/><path class="d" d="M96.19,195.34l-16.48-20.78c-.66-.84-.83-1.96-.44-2.96l16.48-42.05c1-2.54,4.59-2.54,5.59,0l16.48,42.05c.39,.99,.22,2.12-.44,2.96l-16.48,20.78c-1.2,1.51-3.5,1.51-4.7,0Z"/><path class="d" d="M.95,96.28l21.28-16.88c.84-.66,1.96-.83,2.96-.44l42.05,16.48c2.54,1,2.54,4.59,0,5.59l-42.05,16.48c-.99,.39-2.12,.22-2.96-.44L.95,100.2c-1.26-1-1.26-2.91,0-3.91Z"/><path class="d" d="M195.65,100.59l-20.78,16.48c-.84,.66-1.96,.83-2.96,.44l-42.05-16.48c-2.54-1-2.54-4.59,0-5.59l42.05-16.48c.99-.39,2.12-.22,2.96,.44l20.78,16.48c1.51,1.2,1.51,3.5,0,4.7Z"/><path class="d" d="M31.54,27.91l26.35,3.04c1.06,.12,1.98,.8,2.41,1.78l18.08,41.39c1.09,2.5-1.45,5.04-3.95,3.95l-41.39-18.08c-.98-.43-1.66-1.34-1.78-2.41l-3.04-26.35c-.22-1.92,1.4-3.55,3.32-3.32Z"/><path class="d" d="M165.54,168.56l-26.35-3.04c-1.06-.12-1.98-.8-2.41-1.78l-18.08-41.39c-1.09-2.5,1.45-5.04,3.95-3.95l41.39,18.08c.98,.43,1.66,1.34,1.78,2.41l3.04,26.35c.22,1.92-1.4,3.55-3.32,3.32Z"/><path class="d" d="M28.22,165.24l3.04-26.35c.12-1.06,.8-1.98,1.78-2.41l41.39-18.08c2.5-1.09,5.04,1.45,3.95,3.95l-18.08,41.39c-.43,.98-1.34,1.66-2.41,1.78l-26.35,3.04c-1.92,.22-3.55-1.4-3.32-3.32Z"/><path class="d" d="M168.87,31.24l-3.04,26.35c-.12,1.06-.8,1.98-1.78,2.41l-41.39,18.08c-2.5,1.09-5.04-1.45-3.95-3.95l18.08-41.39c.43-.98,1.34-1.66,2.41-1.78l26.35-3.04c1.92-.22,3.55,1.4,3.32,3.32Z"/></g><g><path class="d" d="M245.28,60.11h15.09v81.25h-15.09V60.11Z"/><path class="d" d="M332.32,141.36l-16.6-23.79c-1.04,.12-2.09,.12-3.13,.12h-18.34v23.68h-15.09V60.11h33.43c21.36,0,34.59,10.91,34.59,28.9,0,12.3-6.27,21.36-17.29,25.65l18.69,26.7h-16.25Zm-20.43-68.48h-17.64v32.38h17.64c13.23,0,20.08-6.04,20.08-16.25s-6.85-16.13-20.08-16.13Z"/><path class="d" d="M361.52,60.11h15.09v81.25h-15.09V60.11Z"/><path class="d" d="M389.48,132.77l5.22-11.72c6.5,5.22,16.83,8.94,26.81,8.94,12.65,0,17.99-4.53,17.99-10.56,0-17.53-48.29-6.04-48.29-36.21,0-13.12,10.45-24.26,32.73-24.26,9.75,0,19.96,2.55,27.04,7.2l-4.76,11.72c-7.31-4.29-15.32-6.38-22.4-6.38-12.54,0-17.64,4.88-17.64,11.03,0,17.29,48.17,6.04,48.17,35.87,0,13-10.56,24.14-32.85,24.14-12.65,0-25.3-3.95-32.04-9.75Z"/><path class="d" d="M494.52,132.77l5.22-11.72c6.5,5.22,16.83,8.94,26.81,8.94,12.65,0,17.99-4.53,17.99-10.56,0-17.53-48.29-6.04-48.29-36.21,0-13.12,10.45-24.26,32.73-24.26,9.75,0,19.96,2.55,27.04,7.2l-4.76,11.72c-7.31-4.29-15.32-6.38-22.4-6.38-12.54,0-17.64,4.88-17.64,11.03,0,17.29,48.17,6.04,48.17,35.87,0,13-10.56,24.14-32.85,24.14-12.65,0-25.3-3.95-32.04-9.75Z"/><path class="d" d="M631.75,105.84v35.52h-14.51v-33.66c0-11.03-5.46-16.37-14.74-16.37-10.33,0-17.29,6.27-17.29,18.69v31.34h-14.51V55.24h14.51v31.34c4.76-5.11,12.07-7.89,20.66-7.89,14.86,0,25.88,8.47,25.88,27.16Z"/><path class="d" d="M698.66,105.03v36.33h-13.7v-7.54c-3.48,5.34-10.21,8.36-19.5,8.36-14.16,0-23.1-7.78-23.1-18.57s6.96-18.46,25.77-18.46h16.02v-.93c0-8.47-5.11-13.46-15.44-13.46-6.96,0-14.16,2.32-18.8,6.15l-5.69-10.56c6.62-5.11,16.25-7.66,26.23-7.66,17.88,0,28.21,8.47,28.21,26.35Zm-14.51,16.95v-7.2h-14.97c-9.87,0-12.54,3.71-12.54,8.24,0,5.22,4.41,8.59,11.84,8.59s13.23-3.25,15.67-9.63Z"/><path class="d" d="M774.99,55.24v86.13h-13.93v-8.01c-4.88,5.92-12.07,8.82-20.55,8.82-17.99,0-31.34-12.54-31.34-31.8s13.35-31.69,31.34-31.69c8.01,0,15.09,2.67,19.96,8.36v-31.8h14.51Zm-14.28,55.13c0-11.84-8.01-19.38-18.46-19.38s-18.46,7.54-18.46,19.38,8.01,19.38,18.46,19.38,18.46-7.54,18.46-19.38Z"/><path class="d" d="M849.19,115.01h-48.63c1.74,9.05,9.29,14.86,20.08,14.86,6.96,0,12.42-2.21,16.83-6.73l7.78,8.94c-5.57,6.62-14.28,10.1-24.96,10.1-20.78,0-34.24-13.35-34.24-31.8s13.58-31.69,32.04-31.69,31.34,12.65,31.34,32.04c0,1.16-.12,2.9-.23,4.29Zm-48.75-9.63h35.17c-1.16-8.94-8.01-15.09-17.53-15.09s-16.25,6.04-17.64,15.09Z"/><path class="d" d="M896.33,78.68v13.81c-1.28-.23-2.32-.35-3.37-.35-11.03,0-17.99,6.5-17.99,19.15v30.06h-14.51v-61.98h13.81v9.05c4.18-6.5,11.72-9.75,22.05-9.75Z"/><path class="d" d="M900.4,135.21l5.57-11.03c5.46,3.6,13.81,6.15,21.59,6.15,9.17,0,13-2.55,13-6.85,0-11.84-38.3-.7-38.3-25.42,0-11.72,10.56-19.38,27.28-19.38,8.24,0,17.64,1.97,23.21,5.34l-5.57,11.03c-5.92-3.48-11.84-4.64-17.76-4.64-8.82,0-13,2.9-13,6.96,0,12.54,38.3,1.39,38.3,25.65,0,11.61-10.68,19.15-28.09,19.15-10.33,0-20.66-3.02-26.23-6.96Z"/></g></g></g></svg>